<svg viewBox="0 0 1000 1004.1441" xmlns="http://www.w3.org/2000/svg"><path d="m742 369.144 61 61c3 3 8 5 13 5s10-2 13-5c4-4 6-9 6-14v-189c0-5-2-10-6-13-4-4-8-6-13-6h-189c-5 0-10 2-13 6s-6 8-6 13 2 10 6 13l65 65-225 225c-17 18-17 46 0 63s46 18 63 0zm8 189v123c0 30-11 56-32 78-22 22-48 33-79 33h-320c-30 0-56-11-78-33s-33-48-33-78v-320c0-31 11-57 33-79s48-32 78-32h226c4 0 7 1 9 3 2 3 3 6 3 9v25c0 3-1 6-3 8-3 3-6 4-9 4h-226c-17 0-31 6-43 18s-18 26-18 43v320c0 17 6 31 18 43s27 18 43 18h320c17 0 31-6 44-18s17-26 17-43v-123c0-4 2-7 4-9s5-3 9-3h24c4 0 7 1 9 3 3 3 4 6 4 10z"/></svg>